<svg xmlns="http://www.w3.org/2000/svg" viewBox="0 0 212.07 212.07"><defs><style>.cls-1,.cls-2{fill:#fff;}.cls-2{font-size:88.95px;font-family:Proximateus;}</style></defs><g id="Layer_2" data-name="Layer 2"><g id="Layer_1-2" data-name="Layer 1"><circle class="cls-1" cx="30.11" cy="36.11" r="10.39"/><circle class="cls-1" cx="181.14" cy="176.44" r="10.39"/><text class="cls-2" transform="translate(72.01 136.51)">N</text><path class="cls-1" d="M205.19,89.43,183.28,67.51V83.05h-5.5V62l-4.84-4.83v17h-5.5V51.68l-44.8-44.8a23.48,23.48,0,0,0-33.21,0L6.88,89.43a23.48,23.48,0,0,0,0,33.21l20.48,20.48V129.35h5.5v19.27l4.89,4.9v-17h5.5V159l46.18,46.17a23.47,23.47,0,0,0,33.21,0l82.55-82.55A23.47,23.47,0,0,0,205.19,89.43Zm-35.95,33.21-47.11,47.11a23.5,23.5,0,0,1-33.22,0L41.8,122.64a23.48,23.48,0,0,1,0-33.21L88.91,42.32a23.5,23.5,0,0,1,33.22,0l47.11,47.11A23.48,23.48,0,0,1,169.24,122.64Z"/></g></g></svg>